# xmcd
#
# Track frame offsets:
# 150
# 30995
# 52557
# 82543
# 101822
# 127127
# 159620
# 181573
# 197633
# 218563
# 252394
# 274460
# 313732
#
# Disc length: 4467 seconds
#
#
# Revision: 10
# Processed by: cddbd v1.4PL0 Copyright (c) Steve Scherf et al.
# Submitted via: FreeRIP 2.00 
#
DISCID=a511710d
DTITLE=JOAQUIN SABINA - 19 dias y 500 noches
DYEAR=1999
DGENRE=Blues
TTITLE0=Ahora que..
TTITLE1=19 Días y 500 noches
TTITLE2=Barbi Superestar
TTITLE3=Una canción para la Magdalena
TTITLE4=Dieguitos y Mafaldas
TTITLE5=A mis cuarenta y diez
TTITLE6=El caso de la rubia platino
TTITLE7=Donde habita el olvido
TTITLE8=Cerrado por derribo
TTITLE9=Pero que hermosas eran
TTITLE10=De purísima y oro
TTITLE11=Como te digo una "co" te digo la "o"
TTITLE12=Noches de boda
EXTD=YEAR: 1999 ID3G:   0
EXTT0=
EXTT1=
EXTT2=
EXTT3=
EXTT4=
EXTT5=
EXTT6=
EXTT7=
EXTT8=
EXTT9=
EXTT10=
EXTT11=
EXTT12=
PLAYORDER=
